<svg xmlns="http://www.w3.org/2000/svg" xmlns:xlink="http://www.w3.org/1999/xlink" width="150" zoomAndPan="magnify" viewBox="0 0 112.5 37.5" height="50" preserveAspectRatio="xMidYMid meet" version="1.0"><defs><g/></defs><g fill="#000000" fill-opacity="1"><g transform="translate(16.179088, 20.47698)"><g><path d="M 1.609375 -4.8125 C 1.609375 -4.5625 1.617188 -4.203125 1.640625 -3.734375 L 1.671875 -2.609375 C 1.679688 -2.316406 1.691406 -1.96875 1.703125 -1.5625 C 1.710938 -1.15625 1.71875 -0.785156 1.71875 -0.453125 C 1.914062 -0.453125 2.117188 -0.457031 2.328125 -0.46875 C 3.222656 -0.507812 3.804688 -0.644531 4.078125 -0.875 C 4.222656 -0.988281 4.347656 -1.160156 4.453125 -1.390625 C 4.566406 -1.617188 4.648438 -1.847656 4.703125 -2.078125 C 4.773438 -2.453125 4.753906 -2.828125 4.640625 -3.203125 C 4.535156 -3.578125 4.347656 -3.898438 4.078125 -4.171875 C 3.804688 -4.453125 3.484375 -4.644531 3.109375 -4.75 C 3.003906 -4.769531 2.882812 -4.785156 2.75 -4.796875 C 2.625 -4.816406 2.515625 -4.828125 2.421875 -4.828125 C 2.328125 -4.828125 2.195312 -4.820312 2.03125 -4.8125 C 1.863281 -4.8125 1.734375 -4.8125 1.640625 -4.8125 Z M 0.28125 -5.1875 C 0.382812 -5.21875 0.503906 -5.242188 0.640625 -5.265625 C 0.773438 -5.285156 0.890625 -5.296875 0.984375 -5.296875 C 1.078125 -5.296875 1.195312 -5.289062 1.34375 -5.28125 C 1.488281 -5.28125 1.585938 -5.28125 1.640625 -5.28125 C 1.710938 -5.28125 1.832031 -5.28125 2 -5.28125 C 2.175781 -5.289062 2.316406 -5.296875 2.421875 -5.296875 C 2.523438 -5.296875 2.65625 -5.285156 2.8125 -5.265625 C 2.96875 -5.253906 3.109375 -5.234375 3.234375 -5.203125 C 3.691406 -5.078125 4.085938 -4.847656 4.421875 -4.515625 C 4.753906 -4.179688 4.984375 -3.785156 5.109375 -3.328125 C 5.234375 -2.878906 5.25 -2.429688 5.15625 -1.984375 C 5.101562 -1.703125 5.007812 -1.425781 4.875 -1.15625 C 4.738281 -0.882812 4.570312 -0.664062 4.375 -0.5 C 4.019531 -0.207031 3.34375 -0.0351562 2.34375 0.015625 C 1.675781 0.046875 0.984375 0.0234375 0.265625 -0.046875 C 0.203125 -0.0546875 0.148438 -0.0859375 0.109375 -0.140625 C 0.0664062 -0.191406 0.046875 -0.25 0.046875 -0.3125 C 0.0546875 -0.375 0.0859375 -0.425781 0.140625 -0.46875 C 0.191406 -0.507812 0.25 -0.523438 0.3125 -0.515625 C 0.601562 -0.484375 0.910156 -0.460938 1.234375 -0.453125 C 1.234375 -0.898438 1.226562 -1.34375 1.21875 -1.78125 C 1.207031 -2.226562 1.191406 -2.796875 1.171875 -3.484375 C 1.148438 -4.179688 1.132812 -4.625 1.125 -4.8125 C 0.832031 -4.820312 0.601562 -4.800781 0.4375 -4.75 C 0.375 -4.71875 0.3125 -4.71875 0.25 -4.75 C 0.195312 -4.78125 0.160156 -4.828125 0.140625 -4.890625 C 0.117188 -4.953125 0.117188 -5.007812 0.140625 -5.0625 C 0.171875 -5.125 0.21875 -5.164062 0.28125 -5.1875 Z M 0.28125 -5.1875 "/></g></g></g><g fill="#000000" fill-opacity="1"><g transform="translate(21.57914, 20.47698)"><g><path d="M 3.75 -1.03125 C 3.757812 -1.070312 3.773438 -1.109375 3.796875 -1.140625 C 4.003906 -1.410156 4.128906 -1.726562 4.171875 -2.09375 C 4.210938 -2.457031 4.175781 -2.816406 4.0625 -3.171875 C 3.957031 -3.523438 3.800781 -3.84375 3.59375 -4.125 C 3.257812 -4.550781 2.90625 -4.769531 2.53125 -4.78125 C 2.082031 -4.800781 1.660156 -4.535156 1.265625 -3.984375 C 1.046875 -3.660156 0.910156 -3.269531 0.859375 -2.8125 C 0.816406 -2.351562 0.863281 -1.929688 1 -1.546875 C 1.144531 -1.140625 1.375 -0.832031 1.6875 -0.625 C 1.988281 -0.414062 2.363281 -0.359375 2.8125 -0.453125 C 3.175781 -0.535156 3.488281 -0.726562 3.75 -1.03125 Z M 4.375 -1.0625 C 4 -0.476562 3.507812 -0.125 2.90625 0 C 2.332031 0.125 1.84375 0.0507812 1.4375 -0.21875 C 1.03125 -0.488281 0.738281 -0.878906 0.5625 -1.390625 C 0.394531 -1.835938 0.335938 -2.328125 0.390625 -2.859375 C 0.441406 -3.398438 0.609375 -3.863281 0.890625 -4.25 C 1.378906 -4.945312 1.929688 -5.28125 2.546875 -5.25 C 3.078125 -5.226562 3.550781 -4.945312 3.96875 -4.40625 C 4.1875 -4.125 4.351562 -3.804688 4.46875 -3.453125 C 4.59375 -3.097656 4.648438 -2.71875 4.640625 -2.3125 C 4.640625 -1.914062 4.5625 -1.554688 4.40625 -1.234375 C 4.414062 -1.171875 4.40625 -1.113281 4.375 -1.0625 Z M 4.375 -1.0625 "/></g></g></g><g fill="#000000" fill-opacity="1"><g transform="translate(26.418661, 20.47698)"><g><path d="M 3.921875 -4.984375 C 4.054688 -4.628906 4.179688 -4.140625 4.296875 -3.515625 C 4.441406 -2.742188 4.535156 -2.257812 4.578125 -2.0625 C 4.617188 -1.925781 4.710938 -1.640625 4.859375 -1.203125 L 4.890625 -1.09375 C 4.992188 -1.53125 5.1875 -2.273438 5.46875 -3.328125 C 5.507812 -3.441406 5.5625 -3.59375 5.625 -3.78125 C 5.6875 -3.96875 5.734375 -4.128906 5.765625 -4.265625 C 5.804688 -4.398438 5.828125 -4.53125 5.828125 -4.65625 C 5.753906 -4.65625 5.597656 -4.671875 5.359375 -4.703125 C 5.097656 -4.734375 4.894531 -4.742188 4.75 -4.734375 C 4.675781 -4.734375 4.613281 -4.753906 4.5625 -4.796875 C 4.519531 -4.847656 4.5 -4.90625 4.5 -4.96875 C 4.5 -5.03125 4.519531 -5.082031 4.5625 -5.125 C 4.601562 -5.175781 4.65625 -5.203125 4.71875 -5.203125 C 4.894531 -5.210938 5.125 -5.203125 5.40625 -5.171875 C 5.78125 -5.140625 5.988281 -5.125 6.03125 -5.125 C 6.15625 -5.113281 6.316406 -5.117188 6.515625 -5.140625 C 6.796875 -5.160156 6.96875 -5.171875 7.03125 -5.171875 C 7.09375 -5.171875 7.148438 -5.148438 7.203125 -5.109375 C 7.253906 -5.066406 7.28125 -5.015625 7.28125 -4.953125 C 7.28125 -4.890625 7.253906 -4.832031 7.203125 -4.78125 C 7.160156 -4.726562 7.109375 -4.703125 7.046875 -4.703125 C 6.972656 -4.703125 6.804688 -4.691406 6.546875 -4.671875 C 6.453125 -4.660156 6.367188 -4.648438 6.296875 -4.640625 C 6.296875 -4.492188 6.273438 -4.332031 6.234375 -4.15625 C 6.191406 -3.988281 6.132812 -3.804688 6.0625 -3.609375 C 5.988281 -3.410156 5.945312 -3.273438 5.9375 -3.203125 C 5.550781 -1.828125 5.300781 -0.835938 5.1875 -0.234375 C 5.1875 -0.179688 5.164062 -0.140625 5.125 -0.109375 C 5.082031 -0.078125 5.035156 -0.0546875 4.984375 -0.046875 C 4.960938 -0.0351562 4.9375 -0.0234375 4.90625 -0.015625 C 4.84375 -0.00390625 4.78125 -0.0195312 4.71875 -0.0625 C 4.664062 -0.101562 4.632812 -0.15625 4.625 -0.21875 C 4.582031 -0.4375 4.507812 -0.71875 4.40625 -1.0625 C 4.257812 -1.507812 4.164062 -1.804688 4.125 -1.953125 C 4.070312 -2.148438 3.972656 -2.640625 3.828125 -3.421875 C 3.765625 -3.753906 3.710938 -4.023438 3.671875 -4.234375 L 3.375 -3.25 C 3.320312 -3.039062 3.195312 -2.535156 3 -1.734375 C 2.84375 -1.085938 2.707031 -0.582031 2.59375 -0.21875 C 2.570312 -0.15625 2.53125 -0.109375 2.46875 -0.078125 C 2.4375 -0.0351562 2.398438 0 2.359375 0.03125 C 2.296875 0.0507812 2.234375 0.0507812 2.171875 0.03125 C 2.109375 0.0078125 2.066406 -0.03125 2.046875 -0.09375 C 1.910156 -0.375 1.785156 -0.691406 1.671875 -1.046875 C 1.566406 -1.398438 1.488281 -1.691406 1.4375 -1.921875 C 1.394531 -2.148438 1.34375 -2.476562 1.28125 -2.90625 C 1.257812 -2.988281 1.242188 -3.050781 1.234375 -3.09375 C 1.222656 -3.1875 1.171875 -3.441406 1.078125 -3.859375 C 1.015625 -4.191406 0.972656 -4.460938 0.953125 -4.671875 C 0.867188 -4.679688 0.765625 -4.695312 0.640625 -4.71875 C 0.523438 -4.738281 0.425781 -4.753906 0.34375 -4.765625 C 0.269531 -4.773438 0.191406 -4.773438 0.109375 -4.765625 C 0.046875 -4.753906 -0.0078125 -4.769531 -0.0625 -4.8125 C -0.113281 -4.851562 -0.140625 -4.90625 -0.140625 -4.96875 C -0.148438 -5.03125 -0.132812 -5.085938 -0.09375 -5.140625 C -0.0507812 -5.191406 0 -5.222656 0.0625 -5.234375 C 0.164062 -5.242188 0.269531 -5.242188 0.375 -5.234375 C 0.488281 -5.222656 0.609375 -5.207031 0.734375 -5.1875 C 0.867188 -5.164062 0.957031 -5.15625 1 -5.15625 C 1.257812 -5.125 1.703125 -5.109375 2.328125 -5.109375 C 2.390625 -5.109375 2.441406 -5.082031 2.484375 -5.03125 C 2.535156 -4.988281 2.5625 -4.9375 2.5625 -4.875 C 2.5625 -4.8125 2.535156 -4.753906 2.484375 -4.703125 C 2.441406 -4.660156 2.390625 -4.640625 2.328125 -4.640625 C 1.898438 -4.640625 1.597656 -4.640625 1.421875 -4.640625 C 1.441406 -4.460938 1.484375 -4.238281 1.546875 -3.96875 C 1.640625 -3.539062 1.695312 -3.28125 1.71875 -3.1875 C 1.71875 -3.164062 1.726562 -3.078125 1.75 -2.921875 C 1.78125 -2.773438 1.796875 -2.691406 1.796875 -2.671875 C 1.796875 -2.648438 1.804688 -2.570312 1.828125 -2.4375 C 1.859375 -2.300781 1.878906 -2.210938 1.890625 -2.171875 C 1.898438 -2.140625 1.914062 -2.066406 1.9375 -1.953125 C 1.957031 -1.835938 1.972656 -1.753906 1.984375 -1.703125 C 2.003906 -1.648438 2.023438 -1.570312 2.046875 -1.46875 C 2.066406 -1.375 2.085938 -1.296875 2.109375 -1.234375 C 2.128906 -1.171875 2.148438 -1.097656 2.171875 -1.015625 C 2.203125 -0.929688 2.234375 -0.851562 2.265625 -0.78125 C 2.347656 -1.039062 2.441406 -1.394531 2.546875 -1.84375 C 2.734375 -2.644531 2.859375 -3.15625 2.921875 -3.375 C 2.960938 -3.550781 3.039062 -3.816406 3.15625 -4.171875 C 3.269531 -4.535156 3.351562 -4.8125 3.40625 -5 C 3.414062 -5.0625 3.445312 -5.109375 3.5 -5.140625 C 3.5625 -5.171875 3.625 -5.179688 3.6875 -5.171875 C 3.707031 -5.160156 3.726562 -5.148438 3.75 -5.140625 C 3.832031 -5.117188 3.890625 -5.066406 3.921875 -4.984375 Z M 3.921875 -4.984375 "/></g></g></g><g fill="#000000" fill-opacity="1"><g transform="translate(33.879258, 20.47698)"><g><path d="M 4.203125 -0.0625 C 3.492188 -1.082031 2.851562 -2.238281 2.28125 -3.53125 C 2.257812 -3.570312 2.175781 -3.78125 2.03125 -4.15625 C 1.945312 -4.382812 1.875 -4.5625 1.8125 -4.6875 C 1.78125 -4.6875 1.742188 -4.691406 1.703125 -4.703125 C 1.703125 -4.523438 1.679688 -3.835938 1.640625 -2.640625 C 1.617188 -1.765625 1.625 -1.050781 1.65625 -0.5 C 2.007812 -0.488281 2.273438 -0.484375 2.453125 -0.484375 C 2.515625 -0.484375 2.570312 -0.460938 2.625 -0.421875 C 2.675781 -0.378906 2.703125 -0.328125 2.703125 -0.265625 C 2.703125 -0.203125 2.675781 -0.144531 2.625 -0.09375 C 2.582031 -0.0390625 2.53125 -0.015625 2.46875 -0.015625 C 2.34375 -0.015625 2.007812 -0.0195312 1.46875 -0.03125 C 1.070312 -0.0390625 0.753906 -0.0351562 0.515625 -0.015625 C 0.441406 -0.015625 0.378906 -0.0351562 0.328125 -0.078125 C 0.285156 -0.117188 0.257812 -0.171875 0.25 -0.234375 C 0.25 -0.296875 0.269531 -0.351562 0.3125 -0.40625 C 0.351562 -0.457031 0.40625 -0.484375 0.46875 -0.484375 C 0.664062 -0.503906 0.898438 -0.515625 1.171875 -0.515625 C 1.148438 -1.015625 1.148438 -1.726562 1.171875 -2.65625 C 1.210938 -3.851562 1.234375 -4.535156 1.234375 -4.703125 C 0.960938 -4.703125 0.691406 -4.695312 0.421875 -4.6875 C 0.359375 -4.675781 0.300781 -4.691406 0.25 -4.734375 C 0.207031 -4.785156 0.179688 -4.84375 0.171875 -4.90625 C 0.171875 -4.976562 0.191406 -5.035156 0.234375 -5.078125 C 0.273438 -5.128906 0.328125 -5.15625 0.390625 -5.15625 C 0.910156 -5.1875 1.4375 -5.1875 1.96875 -5.15625 C 2.050781 -5.15625 2.113281 -5.113281 2.15625 -5.03125 C 2.175781 -5.007812 2.191406 -4.988281 2.203125 -4.96875 C 2.273438 -4.820312 2.367188 -4.609375 2.484375 -4.328125 C 2.609375 -4.003906 2.691406 -3.800781 2.734375 -3.71875 C 3.179688 -2.664062 3.691406 -1.695312 4.265625 -0.8125 C 4.273438 -0.988281 4.300781 -1.5625 4.34375 -2.53125 C 4.394531 -3.457031 4.40625 -4.1875 4.375 -4.71875 C 4.050781 -4.71875 3.785156 -4.707031 3.578125 -4.6875 C 3.503906 -4.6875 3.441406 -4.707031 3.390625 -4.75 C 3.347656 -4.789062 3.320312 -4.84375 3.3125 -4.90625 C 3.3125 -4.976562 3.332031 -5.035156 3.375 -5.078125 C 3.414062 -5.128906 3.46875 -5.160156 3.53125 -5.171875 C 3.78125 -5.191406 4.117188 -5.195312 4.546875 -5.1875 C 5.097656 -5.164062 5.421875 -5.160156 5.515625 -5.171875 C 5.578125 -5.171875 5.632812 -5.144531 5.6875 -5.09375 C 5.738281 -5.050781 5.765625 -5 5.765625 -4.9375 C 5.765625 -4.875 5.738281 -4.816406 5.6875 -4.765625 C 5.644531 -4.710938 5.59375 -4.6875 5.53125 -4.6875 C 5.351562 -4.6875 5.125 -4.691406 4.84375 -4.703125 C 4.875 -4.140625 4.867188 -3.40625 4.828125 -2.5 C 4.765625 -1.25 4.734375 -0.492188 4.734375 -0.234375 C 4.734375 -0.171875 4.710938 -0.113281 4.671875 -0.0625 C 4.628906 -0.0195312 4.578125 0.00390625 4.515625 0.015625 C 4.460938 0.046875 4.40625 0.0507812 4.34375 0.03125 C 4.28125 0.0195312 4.234375 -0.0078125 4.203125 -0.0625 Z M 4.203125 -0.0625 "/></g></g></g><g fill="#000000" fill-opacity="1"><g transform="translate(39.824051, 20.47698)"><g><path d="M 0.4375 -0.5625 C 0.53125 -0.570312 0.78125 -0.570312 1.1875 -0.5625 C 1.175781 -0.75 1.179688 -1.007812 1.203125 -1.34375 C 1.222656 -1.6875 1.234375 -1.875 1.234375 -1.90625 C 1.242188 -2.695312 1.21875 -3.617188 1.15625 -4.671875 C 0.789062 -4.660156 0.578125 -4.65625 0.515625 -4.65625 C 0.453125 -4.65625 0.394531 -4.675781 0.34375 -4.71875 C 0.289062 -4.769531 0.265625 -4.828125 0.265625 -4.890625 C 0.265625 -4.953125 0.285156 -5.003906 0.328125 -5.046875 C 0.378906 -5.097656 0.4375 -5.125 0.5 -5.125 C 0.570312 -5.125 0.78125 -5.128906 1.125 -5.140625 C 1.46875 -5.160156 1.675781 -5.171875 1.75 -5.171875 L 2.375 -5.171875 C 2.4375 -5.171875 2.488281 -5.144531 2.53125 -5.09375 C 2.582031 -5.039062 2.609375 -4.984375 2.609375 -4.921875 C 2.609375 -4.859375 2.582031 -4.800781 2.53125 -4.75 C 2.476562 -4.707031 2.421875 -4.6875 2.359375 -4.6875 C 2.140625 -4.695312 1.898438 -4.695312 1.640625 -4.6875 C 1.703125 -3.625 1.722656 -2.691406 1.703125 -1.890625 C 1.703125 -1.828125 1.691406 -1.632812 1.671875 -1.3125 C 1.660156 -0.988281 1.660156 -0.738281 1.671875 -0.5625 C 2.066406 -0.550781 2.320312 -0.546875 2.4375 -0.546875 C 2.945312 -0.546875 3.332031 -0.546875 3.59375 -0.546875 C 3.75 -0.554688 3.875 -0.5625 3.96875 -0.5625 C 3.988281 -0.570312 4.007812 -0.578125 4.03125 -0.578125 C 4.09375 -0.679688 4.128906 -0.878906 4.140625 -1.171875 C 4.140625 -1.265625 4.132812 -1.410156 4.125 -1.609375 C 4.125 -1.816406 4.125 -1.957031 4.125 -2.03125 C 4.125 -2.09375 4.148438 -2.144531 4.203125 -2.1875 C 4.253906 -2.238281 4.3125 -2.265625 4.375 -2.265625 C 4.4375 -2.265625 4.488281 -2.238281 4.53125 -2.1875 C 4.570312 -2.132812 4.59375 -2.078125 4.59375 -2.015625 C 4.59375 -1.972656 4.59375 -1.847656 4.59375 -1.640625 C 4.601562 -1.429688 4.609375 -1.269531 4.609375 -1.15625 C 4.597656 -0.707031 4.503906 -0.394531 4.328125 -0.21875 C 4.296875 -0.1875 4.257812 -0.160156 4.21875 -0.140625 C 4.195312 -0.128906 4.175781 -0.125 4.15625 -0.125 C 4.113281 -0.113281 4.066406 -0.109375 4.015625 -0.109375 C 3.910156 -0.0976562 3.769531 -0.0859375 3.59375 -0.078125 C 3.351562 -0.078125 2.960938 -0.078125 2.421875 -0.078125 C 1.203125 -0.0859375 0.554688 -0.09375 0.484375 -0.09375 C 0.410156 -0.0820312 0.347656 -0.0976562 0.296875 -0.140625 C 0.253906 -0.179688 0.226562 -0.234375 0.21875 -0.296875 C 0.21875 -0.367188 0.238281 -0.425781 0.28125 -0.46875 C 0.320312 -0.519531 0.375 -0.550781 0.4375 -0.5625 Z M 0.4375 -0.5625 "/></g></g></g><g fill="#000000" fill-opacity="1"><g transform="translate(44.616209, 20.47698)"><g><path d="M 3.75 -1.03125 C 3.757812 -1.070312 3.773438 -1.109375 3.796875 -1.140625 C 4.003906 -1.410156 4.128906 -1.726562 4.171875 -2.09375 C 4.210938 -2.457031 4.175781 -2.816406 4.0625 -3.171875 C 3.957031 -3.523438 3.800781 -3.84375 3.59375 -4.125 C 3.257812 -4.550781 2.90625 -4.769531 2.53125 -4.78125 C 2.082031 -4.800781 1.660156 -4.535156 1.265625 -3.984375 C 1.046875 -3.660156 0.910156 -3.269531 0.859375 -2.8125 C 0.816406 -2.351562 0.863281 -1.929688 1 -1.546875 C 1.144531 -1.140625 1.375 -0.832031 1.6875 -0.625 C 1.988281 -0.414062 2.363281 -0.359375 2.8125 -0.453125 C 3.175781 -0.535156 3.488281 -0.726562 3.75 -1.03125 Z M 4.375 -1.0625 C 4 -0.476562 3.507812 -0.125 2.90625 0 C 2.332031 0.125 1.84375 0.0507812 1.4375 -0.21875 C 1.03125 -0.488281 0.738281 -0.878906 0.5625 -1.390625 C 0.394531 -1.835938 0.335938 -2.328125 0.390625 -2.859375 C 0.441406 -3.398438 0.609375 -3.863281 0.890625 -4.25 C 1.378906 -4.945312 1.929688 -5.28125 2.546875 -5.25 C 3.078125 -5.226562 3.550781 -4.945312 3.96875 -4.40625 C 4.1875 -4.125 4.351562 -3.804688 4.46875 -3.453125 C 4.59375 -3.097656 4.648438 -2.71875 4.640625 -2.3125 C 4.640625 -1.914062 4.5625 -1.554688 4.40625 -1.234375 C 4.414062 -1.171875 4.40625 -1.113281 4.375 -1.0625 Z M 4.375 -1.0625 "/></g></g></g><g fill="#000000" fill-opacity="1"><g transform="translate(49.455729, 20.47698)"><g><path d="M 1.9375 -2.359375 C 2.101562 -2.367188 2.65625 -2.375 3.59375 -2.375 L 3.0625 -3.75 C 3.050781 -3.78125 3.023438 -3.875 2.984375 -4.03125 C 2.941406 -4.175781 2.898438 -4.296875 2.859375 -4.390625 C 2.828125 -4.484375 2.796875 -4.554688 2.765625 -4.609375 C 2.734375 -4.546875 2.695312 -4.453125 2.65625 -4.328125 C 2.632812 -4.253906 2.609375 -4.171875 2.578125 -4.078125 C 2.554688 -3.984375 2.535156 -3.894531 2.515625 -3.8125 C 2.492188 -3.726562 2.476562 -3.679688 2.46875 -3.671875 C 2.363281 -3.347656 2.1875 -2.910156 1.9375 -2.359375 Z M 3.25 -0.5625 C 3.382812 -0.570312 3.707031 -0.578125 4.21875 -0.578125 L 3.765625 -1.90625 C 3.742188 -1.894531 3.71875 -1.890625 3.6875 -1.890625 C 3.582031 -1.890625 3.382812 -1.890625 3.09375 -1.890625 C 2.8125 -1.898438 2.566406 -1.898438 2.359375 -1.890625 C 2.160156 -1.890625 1.96875 -1.882812 1.78125 -1.875 C 1.757812 -1.875 1.738281 -1.878906 1.71875 -1.890625 L 1.5625 -1.546875 L 1.328125 -0.9375 L 1.15625 -0.546875 L 1.203125 -0.546875 C 1.703125 -0.535156 2.023438 -0.535156 2.171875 -0.546875 C 2.234375 -0.546875 2.289062 -0.519531 2.34375 -0.46875 C 2.394531 -0.425781 2.421875 -0.375 2.421875 -0.3125 C 2.421875 -0.25 2.394531 -0.191406 2.34375 -0.140625 C 2.300781 -0.0976562 2.25 -0.078125 2.1875 -0.078125 C 2.03125 -0.0664062 1.703125 -0.0664062 1.203125 -0.078125 C 0.804688 -0.078125 0.488281 -0.0664062 0.25 -0.046875 C 0.1875 -0.046875 0.128906 -0.0664062 0.078125 -0.109375 C 0.0351562 -0.148438 0.0078125 -0.203125 0 -0.265625 C -0.0078125 -0.328125 0.00390625 -0.382812 0.046875 -0.4375 C 0.0976562 -0.488281 0.15625 -0.515625 0.21875 -0.515625 C 0.351562 -0.523438 0.488281 -0.535156 0.625 -0.546875 C 0.695312 -0.691406 0.785156 -0.878906 0.890625 -1.109375 L 1.125 -1.734375 C 1.195312 -1.898438 1.300781 -2.117188 1.4375 -2.390625 C 1.570312 -2.671875 1.6875 -2.921875 1.78125 -3.140625 C 1.875 -3.367188 1.953125 -3.585938 2.015625 -3.796875 C 2.015625 -3.816406 2.023438 -3.867188 2.046875 -3.953125 L 2.125 -4.21875 C 2.15625 -4.3125 2.179688 -4.398438 2.203125 -4.484375 C 2.265625 -4.660156 2.328125 -4.796875 2.390625 -4.890625 C 2.421875 -4.960938 2.457031 -5.019531 2.5 -5.0625 C 2.570312 -5.132812 2.648438 -5.175781 2.734375 -5.1875 C 2.890625 -5.195312 3.019531 -5.113281 3.125 -4.9375 C 3.195312 -4.84375 3.257812 -4.710938 3.3125 -4.546875 C 3.351562 -4.453125 3.394531 -4.320312 3.4375 -4.15625 C 3.476562 -4.019531 3.503906 -3.941406 3.515625 -3.921875 C 3.984375 -2.734375 4.378906 -1.628906 4.703125 -0.609375 C 4.703125 -0.585938 4.703125 -0.566406 4.703125 -0.546875 C 5.046875 -0.523438 5.28125 -0.515625 5.40625 -0.515625 C 5.46875 -0.515625 5.519531 -0.488281 5.5625 -0.4375 C 5.613281 -0.382812 5.640625 -0.328125 5.640625 -0.265625 C 5.640625 -0.203125 5.613281 -0.148438 5.5625 -0.109375 C 5.507812 -0.0664062 5.453125 -0.046875 5.390625 -0.046875 C 5.234375 -0.046875 4.992188 -0.0546875 4.671875 -0.078125 C 4.347656 -0.109375 4.113281 -0.125 3.96875 -0.125 C 3.832031 -0.125 3.613281 -0.113281 3.3125 -0.09375 C 3.238281 -0.0820312 3.175781 -0.0976562 3.125 -0.140625 C 3.070312 -0.179688 3.039062 -0.234375 3.03125 -0.296875 C 3.03125 -0.359375 3.046875 -0.414062 3.078125 -0.46875 C 3.117188 -0.519531 3.175781 -0.550781 3.25 -0.5625 Z M 3.25 -0.5625 "/></g></g></g><g fill="#000000" fill-opacity="1"><g transform="translate(55.274205, 20.47698)"><g><path d="M 1.609375 -4.8125 C 1.609375 -4.5625 1.617188 -4.203125 1.640625 -3.734375 L 1.671875 -2.609375 C 1.679688 -2.316406 1.691406 -1.96875 1.703125 -1.5625 C 1.710938 -1.15625 1.71875 -0.785156 1.71875 -0.453125 C 1.914062 -0.453125 2.117188 -0.457031 2.328125 -0.46875 C 3.222656 -0.507812 3.804688 -0.644531 4.078125 -0.875 C 4.222656 -0.988281 4.347656 -1.160156 4.453125 -1.390625 C 4.566406 -1.617188 4.648438 -1.847656 4.703125 -2.078125 C 4.773438 -2.453125 4.753906 -2.828125 4.640625 -3.203125 C 4.535156 -3.578125 4.347656 -3.898438 4.078125 -4.171875 C 3.804688 -4.453125 3.484375 -4.644531 3.109375 -4.75 C 3.003906 -4.769531 2.882812 -4.785156 2.75 -4.796875 C 2.625 -4.816406 2.515625 -4.828125 2.421875 -4.828125 C 2.328125 -4.828125 2.195312 -4.820312 2.03125 -4.8125 C 1.863281 -4.8125 1.734375 -4.8125 1.640625 -4.8125 Z M 0.28125 -5.1875 C 0.382812 -5.21875 0.503906 -5.242188 0.640625 -5.265625 C 0.773438 -5.285156 0.890625 -5.296875 0.984375 -5.296875 C 1.078125 -5.296875 1.195312 -5.289062 1.34375 -5.28125 C 1.488281 -5.28125 1.585938 -5.28125 1.640625 -5.28125 C 1.710938 -5.28125 1.832031 -5.28125 2 -5.28125 C 2.175781 -5.289062 2.316406 -5.296875 2.421875 -5.296875 C 2.523438 -5.296875 2.65625 -5.285156 2.8125 -5.265625 C 2.96875 -5.253906 3.109375 -5.234375 3.234375 -5.203125 C 3.691406 -5.078125 4.085938 -4.847656 4.421875 -4.515625 C 4.753906 -4.179688 4.984375 -3.785156 5.109375 -3.328125 C 5.234375 -2.878906 5.25 -2.429688 5.15625 -1.984375 C 5.101562 -1.703125 5.007812 -1.425781 4.875 -1.15625 C 4.738281 -0.882812 4.570312 -0.664062 4.375 -0.5 C 4.019531 -0.207031 3.34375 -0.0351562 2.34375 0.015625 C 1.675781 0.046875 0.984375 0.0234375 0.265625 -0.046875 C 0.203125 -0.0546875 0.148438 -0.0859375 0.109375 -0.140625 C 0.0664062 -0.191406 0.046875 -0.25 0.046875 -0.3125 C 0.0546875 -0.375 0.0859375 -0.425781 0.140625 -0.46875 C 0.191406 -0.507812 0.25 -0.523438 0.3125 -0.515625 C 0.601562 -0.484375 0.910156 -0.460938 1.234375 -0.453125 C 1.234375 -0.898438 1.226562 -1.34375 1.21875 -1.78125 C 1.207031 -2.226562 1.191406 -2.796875 1.171875 -3.484375 C 1.148438 -4.179688 1.132812 -4.625 1.125 -4.8125 C 0.832031 -4.820312 0.601562 -4.800781 0.4375 -4.75 C 0.375 -4.71875 0.3125 -4.71875 0.25 -4.75 C 0.195312 -4.78125 0.160156 -4.828125 0.140625 -4.890625 C 0.117188 -4.953125 0.117188 -5.007812 0.140625 -5.0625 C 0.171875 -5.125 0.21875 -5.164062 0.28125 -5.1875 Z M 0.28125 -5.1875 "/></g></g></g><g fill="#000000" fill-opacity="1"><g transform="translate(60.674257, 20.47698)"><g/></g></g><g fill="#000000" fill-opacity="1"><g transform="translate(63.042699, 20.47698)"><g><path d="M 1.546875 -4.796875 C 1.546875 -4.691406 1.5625 -4.429688 1.59375 -4.015625 C 1.632812 -3.597656 1.660156 -3.269531 1.671875 -3.03125 L 1.828125 -3.03125 C 1.867188 -3.03125 1.910156 -3.03125 1.953125 -3.03125 L 2.015625 -3.03125 C 2.304688 -3.039062 2.488281 -3.050781 2.5625 -3.0625 C 3.070312 -3.125 3.476562 -3.234375 3.78125 -3.390625 C 3.96875 -3.484375 4.085938 -3.585938 4.140625 -3.703125 C 4.203125 -3.816406 4.195312 -3.957031 4.125 -4.125 C 3.945312 -4.5 3.425781 -4.71875 2.5625 -4.78125 C 2.289062 -4.800781 1.953125 -4.804688 1.546875 -4.796875 Z M 0.421875 -5.265625 C 0.554688 -5.253906 0.875 -5.253906 1.375 -5.265625 C 1.882812 -5.273438 2.289062 -5.269531 2.59375 -5.25 C 3.644531 -5.175781 4.296875 -4.863281 4.546875 -4.3125 C 4.691406 -4.007812 4.695312 -3.734375 4.5625 -3.484375 C 4.457031 -3.285156 4.269531 -3.113281 4 -2.96875 C 3.820312 -2.875 3.617188 -2.796875 3.390625 -2.734375 C 3.609375 -2.648438 3.773438 -2.546875 3.890625 -2.421875 C 3.984375 -2.328125 4.050781 -2.21875 4.09375 -2.09375 C 4.144531 -1.96875 4.175781 -1.859375 4.1875 -1.765625 C 4.195312 -1.679688 4.207031 -1.570312 4.21875 -1.4375 C 4.21875 -1.414062 4.21875 -1.378906 4.21875 -1.328125 C 4.226562 -1.273438 4.234375 -1.238281 4.234375 -1.21875 C 4.234375 -1.207031 4.234375 -1.179688 4.234375 -1.140625 C 4.234375 -1.097656 4.234375 -1.066406 4.234375 -1.046875 C 4.242188 -1.023438 4.25 -0.992188 4.25 -0.953125 C 4.257812 -0.921875 4.265625 -0.898438 4.265625 -0.890625 L 4.296875 -0.8125 C 4.296875 -0.78125 4.300781 -0.753906 4.3125 -0.734375 L 4.34375 -0.671875 C 4.382812 -0.597656 4.441406 -0.539062 4.515625 -0.5 C 4.585938 -0.457031 4.660156 -0.441406 4.734375 -0.453125 C 4.929688 -0.484375 5.050781 -0.648438 5.09375 -0.953125 C 5.113281 -1.003906 5.117188 -1.164062 5.109375 -1.4375 C 5.109375 -1.71875 5.109375 -1.878906 5.109375 -1.921875 C 5.109375 -1.984375 5.132812 -2.035156 5.1875 -2.078125 C 5.238281 -2.128906 5.296875 -2.15625 5.359375 -2.15625 C 5.421875 -2.15625 5.472656 -2.128906 5.515625 -2.078125 C 5.566406 -2.023438 5.59375 -1.96875 5.59375 -1.90625 C 5.59375 -1.863281 5.59375 -1.773438 5.59375 -1.640625 C 5.59375 -1.503906 5.59375 -1.375 5.59375 -1.25 C 5.59375 -1.113281 5.582031 -0.992188 5.5625 -0.890625 C 5.476562 -0.359375 5.226562 -0.0546875 4.8125 0.015625 C 4.632812 0.046875 4.460938 0.015625 4.296875 -0.078125 C 4.140625 -0.171875 4.019531 -0.289062 3.9375 -0.4375 C 3.90625 -0.476562 3.878906 -0.519531 3.859375 -0.5625 C 3.847656 -0.613281 3.832031 -0.664062 3.8125 -0.71875 C 3.800781 -0.78125 3.789062 -0.828125 3.78125 -0.859375 C 3.78125 -0.898438 3.773438 -0.953125 3.765625 -1.015625 L 3.75 -1.15625 C 3.75 -1.175781 3.75 -1.21875 3.75 -1.28125 C 3.75 -1.351562 3.75 -1.394531 3.75 -1.40625 C 3.726562 -1.738281 3.660156 -1.96875 3.546875 -2.09375 C 3.367188 -2.28125 2.992188 -2.414062 2.421875 -2.5 C 2.253906 -2.53125 2.09375 -2.550781 1.9375 -2.5625 C 1.84375 -2.550781 1.765625 -2.546875 1.703125 -2.546875 L 1.6875 -2.546875 C 1.726562 -1.753906 1.71875 -1.09375 1.65625 -0.5625 C 2.03125 -0.539062 2.316406 -0.53125 2.515625 -0.53125 C 2.578125 -0.53125 2.628906 -0.503906 2.671875 -0.453125 C 2.722656 -0.410156 2.75 -0.359375 2.75 -0.296875 C 2.75 -0.234375 2.722656 -0.175781 2.671875 -0.125 C 2.628906 -0.0820312 2.578125 -0.0625 2.515625 -0.0625 C 2.359375 -0.0625 2.015625 -0.078125 1.484375 -0.109375 C 1.066406 -0.128906 0.738281 -0.132812 0.5 -0.125 C 0.4375 -0.125 0.378906 -0.144531 0.328125 -0.1875 C 0.273438 -0.226562 0.25 -0.28125 0.25 -0.34375 C 0.25 -0.40625 0.269531 -0.460938 0.3125 -0.515625 C 0.363281 -0.566406 0.421875 -0.59375 0.484375 -0.59375 C 0.671875 -0.59375 0.898438 -0.585938 1.171875 -0.578125 C 1.203125 -0.828125 1.222656 -1.082031 1.234375 -1.34375 C 1.242188 -1.613281 1.238281 -1.914062 1.21875 -2.25 C 1.207031 -2.582031 1.195312 -2.851562 1.1875 -3.0625 C 1.175781 -3.28125 1.15625 -3.585938 1.125 -3.984375 C 1.09375 -4.378906 1.078125 -4.648438 1.078125 -4.796875 C 0.765625 -4.785156 0.535156 -4.785156 0.390625 -4.796875 C 0.328125 -4.796875 0.273438 -4.816406 0.234375 -4.859375 C 0.191406 -4.910156 0.171875 -4.96875 0.171875 -5.03125 C 0.179688 -5.101562 0.207031 -5.160156 0.25 -5.203125 C 0.300781 -5.242188 0.359375 -5.265625 0.421875 -5.265625 Z M 0.421875 -5.265625 "/></g></g></g><g fill="#000000" fill-opacity="1"><g transform="translate(68.813812, 20.47698)"><g><path d="M 4.109375 -3.21875 C 4.066406 -3.707031 4.054688 -4.234375 4.078125 -4.796875 C 4.023438 -4.796875 3.953125 -4.796875 3.859375 -4.796875 C 3.796875 -4.796875 3.722656 -4.789062 3.640625 -4.78125 C 3.554688 -4.78125 3.484375 -4.773438 3.421875 -4.765625 C 3.367188 -4.765625 3.335938 -4.765625 3.328125 -4.765625 C 3.046875 -4.753906 2.546875 -4.753906 1.828125 -4.765625 L 1.71875 -4.765625 C 1.738281 -4.210938 1.753906 -3.625 1.765625 -3 C 2.171875 -3.039062 2.535156 -3.050781 2.859375 -3.03125 C 2.859375 -3.132812 2.863281 -3.28125 2.875 -3.46875 C 2.894531 -3.664062 2.910156 -3.800781 2.921875 -3.875 C 2.921875 -3.9375 2.945312 -3.988281 3 -4.03125 C 3.050781 -4.082031 3.109375 -4.101562 3.171875 -4.09375 C 3.234375 -4.09375 3.285156 -4.066406 3.328125 -4.015625 C 3.378906 -3.960938 3.398438 -3.90625 3.390625 -3.84375 C 3.390625 -3.757812 3.378906 -3.613281 3.359375 -3.40625 C 3.347656 -3.207031 3.335938 -3.054688 3.328125 -2.953125 C 3.328125 -2.847656 3.320312 -2.710938 3.3125 -2.546875 C 3.3125 -2.390625 3.316406 -2.242188 3.328125 -2.109375 C 3.335938 -1.972656 3.351562 -1.84375 3.375 -1.71875 C 3.382812 -1.65625 3.367188 -1.59375 3.328125 -1.53125 C 3.296875 -1.476562 3.242188 -1.445312 3.171875 -1.4375 C 3.109375 -1.425781 3.050781 -1.4375 3 -1.46875 C 2.945312 -1.507812 2.914062 -1.5625 2.90625 -1.625 C 2.851562 -1.894531 2.832031 -2.207031 2.84375 -2.5625 C 2.519531 -2.582031 2.15625 -2.570312 1.75 -2.53125 C 1.75 -2.21875 1.742188 -1.894531 1.734375 -1.5625 C 1.734375 -1.5 1.726562 -1.375 1.71875 -1.1875 C 1.707031 -1.007812 1.703125 -0.894531 1.703125 -0.84375 C 1.710938 -0.800781 1.71875 -0.691406 1.71875 -0.515625 C 1.832031 -0.515625 2.082031 -0.507812 2.46875 -0.5 C 2.863281 -0.5 3.171875 -0.5 3.390625 -0.5 C 3.421875 -0.5 3.585938 -0.503906 3.890625 -0.515625 L 4.15625 -0.515625 C 4.15625 -0.609375 4.15625 -0.734375 4.15625 -0.890625 C 4.144531 -1.117188 4.128906 -1.332031 4.109375 -1.53125 C 4.097656 -1.601562 4.113281 -1.660156 4.15625 -1.703125 C 4.195312 -1.753906 4.25 -1.78125 4.3125 -1.78125 C 4.382812 -1.789062 4.441406 -1.773438 4.484375 -1.734375 C 4.535156 -1.691406 4.566406 -1.640625 4.578125 -1.578125 C 4.585938 -1.367188 4.601562 -1.144531 4.625 -0.90625 C 4.625 -0.726562 4.625 -0.59375 4.625 -0.5 C 4.625 -0.425781 4.617188 -0.367188 4.609375 -0.328125 C 4.609375 -0.296875 4.601562 -0.269531 4.59375 -0.25 C 4.582031 -0.207031 4.5625 -0.164062 4.53125 -0.125 C 4.507812 -0.101562 4.484375 -0.0859375 4.453125 -0.078125 C 4.441406 -0.0664062 4.429688 -0.0625 4.421875 -0.0625 C 4.410156 -0.0625 4.40625 -0.0625 4.40625 -0.0625 L 4.328125 -0.0625 C 4.304688 -0.0625 4.273438 -0.0546875 4.234375 -0.046875 C 4.171875 -0.046875 4.0625 -0.046875 3.90625 -0.046875 C 3.601562 -0.0351562 3.429688 -0.03125 3.390625 -0.03125 C 3.160156 -0.03125 2.835938 -0.03125 2.421875 -0.03125 C 2.015625 -0.0390625 1.644531 -0.046875 1.3125 -0.046875 C 0.976562 -0.046875 0.660156 -0.0390625 0.359375 -0.03125 C 0.296875 -0.03125 0.238281 -0.0507812 0.1875 -0.09375 C 0.144531 -0.132812 0.125 -0.1875 0.125 -0.25 C 0.125 -0.3125 0.144531 -0.367188 0.1875 -0.421875 C 0.226562 -0.472656 0.28125 -0.5 0.34375 -0.5 C 0.613281 -0.507812 0.914062 -0.515625 1.25 -0.515625 C 1.238281 -0.703125 1.234375 -0.820312 1.234375 -0.875 C 1.234375 -0.9375 1.238281 -1.054688 1.25 -1.234375 C 1.257812 -1.410156 1.265625 -1.53125 1.265625 -1.59375 C 1.296875 -2.75 1.285156 -3.804688 1.234375 -4.765625 C 0.898438 -4.765625 0.601562 -4.757812 0.34375 -4.75 C 0.28125 -4.738281 0.222656 -4.753906 0.171875 -4.796875 C 0.128906 -4.847656 0.101562 -4.90625 0.09375 -4.96875 C 0.09375 -5.03125 0.113281 -5.082031 0.15625 -5.125 C 0.195312 -5.175781 0.25 -5.207031 0.3125 -5.21875 C 0.6875 -5.238281 1.191406 -5.242188 1.828125 -5.234375 C 2.640625 -5.234375 3.132812 -5.234375 3.3125 -5.234375 C 3.320312 -5.234375 3.351562 -5.234375 3.40625 -5.234375 C 3.46875 -5.242188 3.539062 -5.25 3.625 -5.25 C 3.707031 -5.257812 3.78125 -5.265625 3.84375 -5.265625 C 3.988281 -5.273438 4.101562 -5.28125 4.1875 -5.28125 C 4.238281 -5.28125 4.28125 -5.273438 4.3125 -5.265625 C 4.332031 -5.265625 4.351562 -5.265625 4.375 -5.265625 C 4.425781 -5.253906 4.472656 -5.226562 4.515625 -5.1875 C 4.597656 -5.101562 4.617188 -4.992188 4.578125 -4.859375 L 4.546875 -4.78125 C 4.523438 -4.226562 4.535156 -3.722656 4.578125 -3.265625 C 4.578125 -3.191406 4.554688 -3.128906 4.515625 -3.078125 C 4.472656 -3.023438 4.421875 -2.992188 4.359375 -2.984375 C 4.296875 -2.984375 4.238281 -3.003906 4.1875 -3.046875 C 4.132812 -3.085938 4.109375 -3.144531 4.109375 -3.21875 Z M 4.109375 -3.21875 "/></g></g></g><g fill="#000000" fill-opacity="1"><g transform="translate(73.621751, 20.47698)"><g><path d="M 3.5 -4.1875 C 3.4375 -4.25 3.363281 -4.332031 3.28125 -4.4375 L 3.078125 -4.671875 C 2.929688 -4.828125 2.800781 -4.921875 2.6875 -4.953125 C 2.507812 -4.992188 2.316406 -4.988281 2.109375 -4.9375 C 1.898438 -4.894531 1.703125 -4.8125 1.515625 -4.6875 C 1.335938 -4.5625 1.203125 -4.414062 1.109375 -4.25 C 1.023438 -4.09375 1 -3.925781 1.03125 -3.75 C 1.0625 -3.507812 1.195312 -3.332031 1.4375 -3.21875 C 1.601562 -3.125 1.914062 -3.035156 2.375 -2.953125 C 2.894531 -2.859375 3.257812 -2.769531 3.46875 -2.6875 C 3.875 -2.519531 4.140625 -2.257812 4.265625 -1.90625 C 4.367188 -1.582031 4.359375 -1.285156 4.234375 -1.015625 C 4.109375 -0.742188 3.910156 -0.515625 3.640625 -0.328125 C 3.410156 -0.148438 3.144531 -0.0195312 2.84375 0.0625 C 2.539062 0.144531 2.265625 0.164062 2.015625 0.125 C 1.597656 0.0625 1.234375 -0.160156 0.921875 -0.546875 C 0.929688 -0.390625 0.945312 -0.242188 0.96875 -0.109375 C 0.976562 -0.0351562 0.960938 0.0234375 0.921875 0.078125 C 0.878906 0.128906 0.820312 0.160156 0.75 0.171875 C 0.6875 0.179688 0.628906 0.164062 0.578125 0.125 C 0.523438 0.09375 0.492188 0.0390625 0.484375 -0.03125 C 0.460938 -0.1875 0.453125 -0.363281 0.453125 -0.5625 C 0.453125 -0.769531 0.457031 -0.945312 0.46875 -1.09375 C 0.476562 -1.25 0.488281 -1.425781 0.5 -1.625 C 0.519531 -1.832031 0.53125 -2 0.53125 -2.125 C 0.53125 -2.1875 0.554688 -2.238281 0.609375 -2.28125 C 0.660156 -2.320312 0.71875 -2.34375 0.78125 -2.34375 C 0.84375 -2.34375 0.894531 -2.316406 0.9375 -2.265625 C 0.988281 -2.222656 1.015625 -2.171875 1.015625 -2.109375 C 1.003906 -1.960938 0.984375 -1.691406 0.953125 -1.296875 C 1.160156 -1.003906 1.34375 -0.78125 1.5 -0.625 C 1.65625 -0.476562 1.851562 -0.382812 2.09375 -0.34375 C 2.28125 -0.3125 2.488281 -0.328125 2.71875 -0.390625 C 2.957031 -0.460938 3.175781 -0.566406 3.375 -0.703125 C 3.800781 -1.015625 3.945312 -1.363281 3.8125 -1.75 C 3.738281 -1.96875 3.5625 -2.132812 3.28125 -2.25 C 3.101562 -2.320312 2.769531 -2.40625 2.28125 -2.5 C 1.78125 -2.582031 1.425781 -2.675781 1.21875 -2.78125 C 0.832031 -2.976562 0.609375 -3.273438 0.546875 -3.671875 C 0.503906 -3.960938 0.550781 -4.226562 0.6875 -4.46875 C 0.820312 -4.707031 1.015625 -4.910156 1.265625 -5.078125 C 1.492188 -5.234375 1.742188 -5.335938 2.015625 -5.390625 C 2.296875 -5.453125 2.554688 -5.457031 2.796875 -5.40625 C 3.003906 -5.351562 3.210938 -5.21875 3.421875 -5 L 3.5625 -4.828125 C 3.570312 -4.890625 3.578125 -4.945312 3.578125 -5 C 3.578125 -5.0625 3.597656 -5.113281 3.640625 -5.15625 C 3.691406 -5.207031 3.75 -5.234375 3.8125 -5.234375 C 3.875 -5.234375 3.925781 -5.207031 3.96875 -5.15625 C 4.019531 -5.101562 4.046875 -5.046875 4.046875 -4.984375 C 4.046875 -4.929688 4.023438 -4.640625 3.984375 -4.109375 C 3.960938 -3.765625 3.953125 -3.488281 3.953125 -3.28125 C 3.953125 -3.21875 3.925781 -3.160156 3.875 -3.109375 C 3.832031 -3.054688 3.78125 -3.03125 3.71875 -3.03125 C 3.65625 -3.03125 3.597656 -3.050781 3.546875 -3.09375 C 3.503906 -3.144531 3.484375 -3.203125 3.484375 -3.265625 C 3.472656 -3.492188 3.484375 -3.789062 3.515625 -4.15625 L 3.515625 -4.171875 C 3.503906 -4.179688 3.5 -4.1875 3.5 -4.1875 Z M 3.5 -4.1875 "/></g></g></g><g fill="#000000" fill-opacity="1"><g transform="translate(78.137583, 20.47698)"><g><path d="M 3.15625 -5.109375 C 3.375 -5.128906 3.707031 -5.128906 4.15625 -5.109375 C 4.675781 -5.097656 5 -5.09375 5.125 -5.09375 C 5.1875 -5.09375 5.238281 -5.066406 5.28125 -5.015625 C 5.332031 -4.972656 5.359375 -4.921875 5.359375 -4.859375 C 5.359375 -4.796875 5.332031 -4.738281 5.28125 -4.6875 C 5.238281 -4.632812 5.1875 -4.609375 5.125 -4.609375 C 4.976562 -4.609375 4.785156 -4.613281 4.546875 -4.625 C 4.597656 -4.320312 4.628906 -3.867188 4.640625 -3.265625 C 4.648438 -2.515625 4.628906 -1.960938 4.578125 -1.609375 C 4.535156 -1.304688 4.414062 -1.019531 4.21875 -0.75 C 4.082031 -0.5625 3.890625 -0.394531 3.640625 -0.25 C 3.398438 -0.101562 3.140625 0 2.859375 0.0625 C 2.671875 0.09375 2.484375 0.101562 2.296875 0.09375 C 2.117188 0.09375 1.9375 0.0546875 1.75 -0.015625 C 1.570312 -0.0976562 1.425781 -0.210938 1.3125 -0.359375 C 0.976562 -0.742188 0.832031 -1.492188 0.875 -2.609375 C 0.882812 -2.890625 0.910156 -3.3125 0.953125 -3.875 C 0.984375 -4.269531 1.003906 -4.546875 1.015625 -4.703125 C 0.742188 -4.722656 0.507812 -4.722656 0.3125 -4.703125 C 0.25 -4.703125 0.191406 -4.722656 0.140625 -4.765625 C 0.0859375 -4.804688 0.0546875 -4.859375 0.046875 -4.921875 C 0.046875 -4.992188 0.0664062 -5.050781 0.109375 -5.09375 C 0.148438 -5.144531 0.203125 -5.175781 0.265625 -5.1875 C 0.503906 -5.207031 0.875 -5.195312 1.375 -5.15625 C 1.820312 -5.113281 2.160156 -5.109375 2.390625 -5.140625 C 2.453125 -5.148438 2.507812 -5.132812 2.5625 -5.09375 C 2.613281 -5.050781 2.644531 -5 2.65625 -4.9375 C 2.664062 -4.875 2.648438 -4.816406 2.609375 -4.765625 C 2.566406 -4.710938 2.515625 -4.679688 2.453125 -4.671875 C 2.191406 -4.640625 1.863281 -4.640625 1.46875 -4.671875 C 1.46875 -4.566406 1.453125 -4.289062 1.421875 -3.84375 C 1.378906 -3.28125 1.351562 -2.863281 1.34375 -2.59375 C 1.3125 -1.601562 1.421875 -0.957031 1.671875 -0.65625 C 1.785156 -0.53125 1.9375 -0.445312 2.125 -0.40625 C 2.320312 -0.363281 2.535156 -0.363281 2.765625 -0.40625 C 2.984375 -0.457031 3.191406 -0.539062 3.390625 -0.65625 C 3.585938 -0.769531 3.738281 -0.894531 3.84375 -1.03125 C 3.988281 -1.226562 4.078125 -1.441406 4.109375 -1.671875 C 4.160156 -2.003906 4.179688 -2.53125 4.171875 -3.25 C 4.160156 -3.914062 4.125 -4.378906 4.0625 -4.640625 C 3.707031 -4.648438 3.414062 -4.648438 3.1875 -4.640625 C 3.113281 -4.628906 3.050781 -4.644531 3 -4.6875 C 2.957031 -4.738281 2.929688 -4.796875 2.921875 -4.859375 C 2.921875 -4.929688 2.941406 -4.988281 2.984375 -5.03125 C 3.035156 -5.082031 3.09375 -5.109375 3.15625 -5.109375 Z M 3.15625 -5.109375 "/></g></g></g><g fill="#000000" fill-opacity="1"><g transform="translate(83.679743, 20.47698)"><g><path d="M 5.0625 -5.1875 C 5.1875 -5.1875 5.488281 -5.179688 5.96875 -5.171875 C 6.457031 -5.160156 6.765625 -5.160156 6.890625 -5.171875 C 6.953125 -5.171875 7.007812 -5.148438 7.0625 -5.109375 C 7.113281 -5.066406 7.140625 -5.015625 7.140625 -4.953125 C 7.140625 -4.890625 7.113281 -4.832031 7.0625 -4.78125 C 7.019531 -4.726562 6.96875 -4.703125 6.90625 -4.703125 C 6.675781 -4.691406 6.390625 -4.691406 6.046875 -4.703125 C 6.054688 -4.597656 6.066406 -4.488281 6.078125 -4.375 C 6.085938 -4.269531 6.09375 -4.148438 6.09375 -4.015625 C 6.09375 -3.890625 6.085938 -3.789062 6.078125 -3.71875 C 6.078125 -3.65625 6.070312 -3.539062 6.0625 -3.375 C 6.0625 -3.21875 6.0625 -3.117188 6.0625 -3.078125 C 6.050781 -2.804688 6.050781 -2.390625 6.0625 -1.828125 C 6.070312 -1.273438 6.070312 -0.859375 6.0625 -0.578125 C 6.0625 -0.554688 6.0625 -0.535156 6.0625 -0.515625 L 6.390625 -0.515625 C 6.554688 -0.515625 6.707031 -0.515625 6.84375 -0.515625 L 6.859375 -0.515625 C 6.921875 -0.515625 6.972656 -0.492188 7.015625 -0.453125 C 7.066406 -0.410156 7.09375 -0.359375 7.09375 -0.296875 L 7.09375 -0.28125 C 7.09375 -0.21875 7.066406 -0.160156 7.015625 -0.109375 C 6.972656 -0.0664062 6.921875 -0.046875 6.859375 -0.046875 C 6.710938 -0.046875 6.554688 -0.046875 6.390625 -0.046875 C 6.210938 -0.046875 5.945312 -0.046875 5.59375 -0.046875 C 5.238281 -0.0546875 4.972656 -0.0625 4.796875 -0.0625 C 4.734375 -0.0625 4.675781 -0.0820312 4.625 -0.125 C 4.582031 -0.175781 4.5625 -0.234375 4.5625 -0.296875 C 4.5625 -0.359375 4.582031 -0.410156 4.625 -0.453125 C 4.675781 -0.503906 4.734375 -0.53125 4.796875 -0.53125 C 4.972656 -0.53125 5.242188 -0.53125 5.609375 -0.53125 C 5.597656 -0.550781 5.59375 -0.570312 5.59375 -0.59375 C 5.601562 -0.863281 5.601562 -1.273438 5.59375 -1.828125 C 5.582031 -2.390625 5.582031 -2.8125 5.59375 -3.09375 C 5.59375 -3.132812 5.597656 -3.238281 5.609375 -3.40625 C 5.617188 -3.582031 5.625 -3.703125 5.625 -3.765625 L 5.625 -4.0625 C 5.625 -4.195312 5.617188 -4.3125 5.609375 -4.40625 C 5.597656 -4.507812 5.585938 -4.609375 5.578125 -4.703125 C 5.523438 -4.703125 5.476562 -4.707031 5.4375 -4.71875 C 4.84375 -3.28125 4.304688 -1.757812 3.828125 -0.15625 C 3.804688 -0.09375 3.765625 -0.046875 3.703125 -0.015625 C 3.648438 0.015625 3.59375 0.0234375 3.53125 0.015625 C 3.425781 -0.0234375 3.375 -0.101562 3.375 -0.21875 C 2.96875 -1.539062 2.425781 -3.03125 1.75 -4.6875 L 1.609375 -4.6875 C 1.628906 -4.582031 1.644531 -4.472656 1.65625 -4.359375 C 1.664062 -4.253906 1.671875 -4.132812 1.671875 -4 L 1.671875 -3.671875 C 1.671875 -3.597656 1.664062 -3.472656 1.65625 -3.296875 C 1.644531 -3.128906 1.640625 -3.023438 1.640625 -2.984375 C 1.628906 -2.710938 1.628906 -2.296875 1.640625 -1.734375 C 1.648438 -1.179688 1.648438 -0.765625 1.640625 -0.484375 C 1.921875 -0.484375 2.171875 -0.484375 2.390625 -0.484375 C 2.453125 -0.484375 2.507812 -0.460938 2.5625 -0.421875 C 2.613281 -0.378906 2.640625 -0.328125 2.640625 -0.265625 C 2.640625 -0.203125 2.613281 -0.144531 2.5625 -0.09375 C 2.519531 -0.0390625 2.46875 -0.015625 2.40625 -0.015625 C 2.269531 -0.00390625 1.921875 -0.00390625 1.359375 -0.015625 C 0.804688 -0.0234375 0.46875 -0.03125 0.34375 -0.03125 C 0.28125 -0.03125 0.222656 -0.0507812 0.171875 -0.09375 C 0.128906 -0.144531 0.109375 -0.203125 0.109375 -0.265625 C 0.109375 -0.328125 0.128906 -0.378906 0.171875 -0.421875 C 0.222656 -0.472656 0.28125 -0.5 0.34375 -0.5 C 0.519531 -0.5 0.796875 -0.492188 1.171875 -0.484375 L 1.171875 -0.5 C 1.179688 -0.78125 1.179688 -1.195312 1.171875 -1.75 C 1.160156 -2.3125 1.160156 -2.726562 1.171875 -3 C 1.171875 -3.050781 1.171875 -3.144531 1.171875 -3.28125 C 1.179688 -3.425781 1.1875 -3.53125 1.1875 -3.59375 C 1.1875 -3.65625 1.1875 -3.742188 1.1875 -3.859375 C 1.1875 -3.984375 1.1875 -4.082031 1.1875 -4.15625 C 1.1875 -4.226562 1.179688 -4.3125 1.171875 -4.40625 C 1.160156 -4.507812 1.144531 -4.609375 1.125 -4.703125 C 0.78125 -4.710938 0.53125 -4.71875 0.375 -4.71875 C 0.3125 -4.71875 0.253906 -4.738281 0.203125 -4.78125 C 0.160156 -4.832031 0.140625 -4.890625 0.140625 -4.953125 C 0.140625 -5.015625 0.160156 -5.066406 0.203125 -5.109375 C 0.253906 -5.160156 0.3125 -5.1875 0.375 -5.1875 C 0.5 -5.1875 0.800781 -5.179688 1.28125 -5.171875 C 1.769531 -5.160156 2.078125 -5.160156 2.203125 -5.171875 C 2.265625 -5.171875 2.320312 -5.148438 2.375 -5.109375 C 2.425781 -5.066406 2.453125 -5.015625 2.453125 -4.953125 C 2.453125 -4.890625 2.429688 -4.832031 2.390625 -4.78125 C 2.347656 -4.738281 2.300781 -4.710938 2.25 -4.703125 C 2.800781 -3.367188 3.253906 -2.144531 3.609375 -1.03125 C 4.015625 -2.320312 4.460938 -3.5625 4.953125 -4.75 C 4.867188 -4.800781 4.828125 -4.867188 4.828125 -4.953125 C 4.828125 -5.015625 4.847656 -5.066406 4.890625 -5.109375 C 4.941406 -5.160156 5 -5.1875 5.0625 -5.1875 Z M 5.0625 -5.1875 "/></g></g></g><g fill="#000000" fill-opacity="1"><g transform="translate(90.998243, 20.47698)"><g><path d="M 4.109375 -3.21875 C 4.066406 -3.707031 4.054688 -4.234375 4.078125 -4.796875 C 4.023438 -4.796875 3.953125 -4.796875 3.859375 -4.796875 C 3.796875 -4.796875 3.722656 -4.789062 3.640625 -4.78125 C 3.554688 -4.78125 3.484375 -4.773438 3.421875 -4.765625 C 3.367188 -4.765625 3.335938 -4.765625 3.328125 -4.765625 C 3.046875 -4.753906 2.546875 -4.753906 1.828125 -4.765625 L 1.71875 -4.765625 C 1.738281 -4.210938 1.753906 -3.625 1.765625 -3 C 2.171875 -3.039062 2.535156 -3.050781 2.859375 -3.03125 C 2.859375 -3.132812 2.863281 -3.28125 2.875 -3.46875 C 2.894531 -3.664062 2.910156 -3.800781 2.921875 -3.875 C 2.921875 -3.9375 2.945312 -3.988281 3 -4.03125 C 3.050781 -4.082031 3.109375 -4.101562 3.171875 -4.09375 C 3.234375 -4.09375 3.285156 -4.066406 3.328125 -4.015625 C 3.378906 -3.960938 3.398438 -3.90625 3.390625 -3.84375 C 3.390625 -3.757812 3.378906 -3.613281 3.359375 -3.40625 C 3.347656 -3.207031 3.335938 -3.054688 3.328125 -2.953125 C 3.328125 -2.847656 3.320312 -2.710938 3.3125 -2.546875 C 3.3125 -2.390625 3.316406 -2.242188 3.328125 -2.109375 C 3.335938 -1.972656 3.351562 -1.84375 3.375 -1.71875 C 3.382812 -1.65625 3.367188 -1.59375 3.328125 -1.53125 C 3.296875 -1.476562 3.242188 -1.445312 3.171875 -1.4375 C 3.109375 -1.425781 3.050781 -1.4375 3 -1.46875 C 2.945312 -1.507812 2.914062 -1.5625 2.90625 -1.625 C 2.851562 -1.894531 2.832031 -2.207031 2.84375 -2.5625 C 2.519531 -2.582031 2.15625 -2.570312 1.75 -2.53125 C 1.75 -2.21875 1.742188 -1.894531 1.734375 -1.5625 C 1.734375 -1.5 1.726562 -1.375 1.71875 -1.1875 C 1.707031 -1.007812 1.703125 -0.894531 1.703125 -0.84375 C 1.710938 -0.800781 1.71875 -0.691406 1.71875 -0.515625 C 1.832031 -0.515625 2.082031 -0.507812 2.46875 -0.5 C 2.863281 -0.5 3.171875 -0.5 3.390625 -0.5 C 3.421875 -0.5 3.585938 -0.503906 3.890625 -0.515625 L 4.15625 -0.515625 C 4.15625 -0.609375 4.15625 -0.734375 4.15625 -0.890625 C 4.144531 -1.117188 4.128906 -1.332031 4.109375 -1.53125 C 4.097656 -1.601562 4.113281 -1.660156 4.15625 -1.703125 C 4.195312 -1.753906 4.25 -1.78125 4.3125 -1.78125 C 4.382812 -1.789062 4.441406 -1.773438 4.484375 -1.734375 C 4.535156 -1.691406 4.566406 -1.640625 4.578125 -1.578125 C 4.585938 -1.367188 4.601562 -1.144531 4.625 -0.90625 C 4.625 -0.726562 4.625 -0.59375 4.625 -0.5 C 4.625 -0.425781 4.617188 -0.367188 4.609375 -0.328125 C 4.609375 -0.296875 4.601562 -0.269531 4.59375 -0.25 C 4.582031 -0.207031 4.5625 -0.164062 4.53125 -0.125 C 4.507812 -0.101562 4.484375 -0.0859375 4.453125 -0.078125 C 4.441406 -0.0664062 4.429688 -0.0625 4.421875 -0.0625 C 4.410156 -0.0625 4.40625 -0.0625 4.40625 -0.0625 L 4.328125 -0.0625 C 4.304688 -0.0625 4.273438 -0.0546875 4.234375 -0.046875 C 4.171875 -0.046875 4.0625 -0.046875 3.90625 -0.046875 C 3.601562 -0.0351562 3.429688 -0.03125 3.390625 -0.03125 C 3.160156 -0.03125 2.835938 -0.03125 2.421875 -0.03125 C 2.015625 -0.0390625 1.644531 -0.046875 1.3125 -0.046875 C 0.976562 -0.046875 0.660156 -0.0390625 0.359375 -0.03125 C 0.296875 -0.03125 0.238281 -0.0507812 0.1875 -0.09375 C 0.144531 -0.132812 0.125 -0.1875 0.125 -0.25 C 0.125 -0.3125 0.144531 -0.367188 0.1875 -0.421875 C 0.226562 -0.472656 0.28125 -0.5 0.34375 -0.5 C 0.613281 -0.507812 0.914062 -0.515625 1.25 -0.515625 C 1.238281 -0.703125 1.234375 -0.820312 1.234375 -0.875 C 1.234375 -0.9375 1.238281 -1.054688 1.25 -1.234375 C 1.257812 -1.410156 1.265625 -1.53125 1.265625 -1.59375 C 1.296875 -2.75 1.285156 -3.804688 1.234375 -4.765625 C 0.898438 -4.765625 0.601562 -4.757812 0.34375 -4.75 C 0.28125 -4.738281 0.222656 -4.753906 0.171875 -4.796875 C 0.128906 -4.847656 0.101562 -4.90625 0.09375 -4.96875 C 0.09375 -5.03125 0.113281 -5.082031 0.15625 -5.125 C 0.195312 -5.175781 0.25 -5.207031 0.3125 -5.21875 C 0.6875 -5.238281 1.191406 -5.242188 1.828125 -5.234375 C 2.640625 -5.234375 3.132812 -5.234375 3.3125 -5.234375 C 3.320312 -5.234375 3.351562 -5.234375 3.40625 -5.234375 C 3.46875 -5.242188 3.539062 -5.25 3.625 -5.25 C 3.707031 -5.257812 3.78125 -5.265625 3.84375 -5.265625 C 3.988281 -5.273438 4.101562 -5.28125 4.1875 -5.28125 C 4.238281 -5.28125 4.28125 -5.273438 4.3125 -5.265625 C 4.332031 -5.265625 4.351562 -5.265625 4.375 -5.265625 C 4.425781 -5.253906 4.472656 -5.226562 4.515625 -5.1875 C 4.597656 -5.101562 4.617188 -4.992188 4.578125 -4.859375 L 4.546875 -4.78125 C 4.523438 -4.226562 4.535156 -3.722656 4.578125 -3.265625 C 4.578125 -3.191406 4.554688 -3.128906 4.515625 -3.078125 C 4.472656 -3.023438 4.421875 -2.992188 4.359375 -2.984375 C 4.296875 -2.984375 4.238281 -3.003906 4.1875 -3.046875 C 4.132812 -3.085938 4.109375 -3.144531 4.109375 -3.21875 Z M 4.109375 -3.21875 "/></g></g></g></svg>